<svg xmlns="http://www.w3.org/2000/svg" viewBox="0 0 509.15 179.04"><defs><style>.cls-1{fill:#fff;}</style></defs><g id="Layer_2" data-name="Layer 2"><g id="Web"><g id="Contenido"><path class="cls-1" d="M379.31,52.32H358.5a.2.2,0,0,0-.2.2v2.87a40,40,0,0,0-18.54-4.53c-21.93,0-39.77,17.49-39.77,39s17.84,39,39.77,39a40.13,40.13,0,0,0,18.54-4.5v3.36a.2.2,0,0,0,.2.2h20.81a.2.2,0,0,0,.2-.2V52.52A.2.2,0,0,0,379.31,52.32Zm-39.45,56.4a18.88,18.88,0,1,1,18.86-18.86A18.89,18.89,0,0,1,339.86,108.72Z"/><path class="cls-1" d="M131.91,51.5a39,39,0,1,0,28.84,53.32.21.21,0,0,0-.19-.28h-24a.43.43,0,0,0-.29.1,18,18,0,0,1-11.53,4.16,18.49,18.49,0,0,1-16.88-11.35H163l.12-.62A39,39,0,0,0,131.91,51.5ZM107.47,83.27a18.27,18.27,0,0,1,34.57,0Z"/><path class="cls-1" d="M79.3,0,58.49,3.91l-.17.2V55.39a40.11,40.11,0,0,0-18.55-4.51C17.84,50.88,0,68.35,0,89.86s17.84,39,39.77,39a40.17,40.17,0,0,0,18.55-4.51v3.4a.18.18,0,0,0,.18.17H79.36a.18.18,0,0,0,.18-.17V.2ZM39.85,108.72A18.88,18.88,0,1,1,58.71,89.86,18.87,18.87,0,0,1,39.85,108.72Z"/><path class="cls-1" d="M301.93,51.55c-12.59-.22-21.7,2.3-27.18,7.1V52.52a.2.2,0,0,0-.2-.2h-22a.2.2,0,0,0-.2.2v75.17a.2.2,0,0,0,.2.2h22a.2.2,0,0,0,.2-.2V86.48c1.53-8.12,11.27-13.59,19.87-13.59a20.79,20.79,0,0,1,4.7.54.18.18,0,0,0,.23-.16l2.62-21.45Z"/><path class="cls-1" d="M509,53.38H484.34a.21.21,0,0,0-.18.11l-21.56,42-23.12-43a.42.42,0,0,0-.38-.24H409.27V41.55c0-.4,0-.88,0-1.44v-.23c0-10.62,8-18.93,18.07-18.93h4.81a.2.2,0,0,0,.2-.2V1.1a.2.2,0,0,0-.2-.2h-4.81c-19.73,0-36.14,14.16-39.25,32.68a36.46,36.46,0,0,0-.4,5.53v88.58a.2.2,0,0,0,.2.2h21.16a.2.2,0,0,0,.2-.2V73.36h15.31l25.57,46.21-23.3,44.27a.2.2,0,0,0,.17.29h24.56a.21.21,0,0,0,.18-.11L509.13,53.68A.21.21,0,0,0,509,53.38Z"/><path class="cls-1" d="M237.14,130.72c-7.2-4.47-17.22-6.65-30.59-6.65h-.06c-3.37,0-6.55.14-9.49.43l3.09-6.34a35.77,35.77,0,0,0,5.59.46c20.06,0,36.36-15,36.36-33.31a30,30,0,0,0-3-13.1h6.58a.2.2,0,0,0,.2-.2V52.51a.2.2,0,0,0-.2-.21h-34.9c-1.64-.13-3.36-.32-5.07-.32-19.83,0-36,15-36,33.33a32.38,32.38,0,0,0,12,24.85h0l-14,28.67h0a23.53,23.53,0,0,0-3.56,12.7c0,9,3.79,16,11.17,20.87,7.07,4.45,17.23,6.62,31.14,6.62h.06c13.91,0,24.06-2.17,31.13-6.62,7.38-4.86,11.18-11.89,11.18-20.87C248.86,143,244.72,135.54,237.14,130.72ZM205.68,72.21c8.13,0,14.45,5.74,14.45,13.1,0,7.09-6.63,13.08-14.45,13.08-6.88,0-14.22-5.28-14.22-13.08C191.46,78.2,198,72.21,205.68,72.21Zm.87,88.09h-.06c-15.09,0-22.08-2.76-22.08-8.75,0-5.38,8.46-8.73,22.08-8.73h.06c13.62,0,22.08,3.35,22.08,8.73C228.63,157.54,221.63,160.3,206.55,160.3Z"/></g></g></g></svg>