<svg xmlns="http://www.w3.org/2000/svg" viewBox="0 0 95.19 117.91"><defs><style>.cls-1{fill:#fff;}</style></defs><title>icon_huella</title><g id="Layer_2" data-name="Layer 2"><g id="Web"><g id="Contenido"><path class="cls-1" d="M46.86,6.47a34.73,34.73,0,0,1,3.67.21l3.21.37L54.47.63,51.26.26A38.46,38.46,0,0,0,46.86,0c-18,0-34.19,12.76-42.2,31.86l6,2.43C17.65,17.61,31.54,6.47,46.86,6.47Z"/><path class="cls-1" d="M4.76,51l1.51-2.07A72,72,0,0,1,58.82,19.72l1.49-.1c1.47-.09,2.78-.13,4-.13a73.32,73.32,0,0,1,13.17,1.2l3.19.59,1.17-6.36-3.17-.59A80,80,0,0,0,64.34,13c-.88,0-1.8,0-2.77.06v0L60,13.17h0c-.51,0-1,.06-1.61.11h0l-3.16.24v.06h0A78.39,78.39,0,0,0,10.63,34.29S3.86,41.79,0,49Z"/><path class="cls-1" d="M67.44,92.47l.26-3.23-6.44-.52L61,92a18,18,0,0,0,8.63,16.94l2.76,1.68,3.37-5.52L73,103.37A11.64,11.64,0,0,1,67.44,92.47Z"/><path class="cls-1" d="M60.31,58.53a33.21,33.21,0,0,0-27.27,44,4.39,4.39,0,0,1-.54,4A4.16,4.16,0,0,1,29,108.38,4.39,4.39,0,0,1,25,105.44a41,41,0,0,1-2.39-15.71,42.12,42.12,0,0,1,39.61-40A41.65,41.65,0,0,1,80.62,53a10.48,10.48,0,0,0,14.56-9.55A10.74,10.74,0,0,0,88.7,33a62.43,62.43,0,0,0-24.34-4.89A63.26,63.26,0,0,0,1.89,80.67l-.55,3.19L7.71,85l.55-3.18a56.8,56.8,0,0,1,56.1-47.2A55.88,55.88,0,0,1,86.19,39a4.33,4.33,0,0,1,2.52,4.35A4,4,0,0,1,83.13,47a48,48,0,0,0-21.29-3.74A48.63,48.63,0,0,0,16.1,89.45a47.53,47.53,0,0,0,2.76,18.18A10.89,10.89,0,0,0,29,114.85a10.57,10.57,0,0,0,8.74-4.52,10.92,10.92,0,0,0,1.36-9.94A26.73,26.73,0,0,1,87,77.22L88.69,80l5.46-3.46-1.74-2.73A33.07,33.07,0,0,0,60.31,58.53Z"/><path class="cls-1" d="M82.43,92.07h0a18.92,18.92,0,0,0-2.53-9.39,18,18,0,0,0-33.7,8.45v.38h0a33.27,33.27,0,0,0,10.93,24.23l2.39,2.17,4.34-4.79L61.5,111a26.79,26.79,0,0,1-8.8-19.6,11.67,11.67,0,0,1,11.66-11.5,11.85,11.85,0,0,1,10,6.06A12.6,12.6,0,0,1,76,91.14h0a33.5,33.5,0,0,0,.68,6.71l.66,3.17,6.33-1.31L83,96.54A26.62,26.62,0,0,1,82.43,92.07Z"/></g></g></g></svg>