<svg xmlns="http://www.w3.org/2000/svg" viewBox="0 0 85.22 85.22"><defs><style>.cls-1{fill:#fff;}</style></defs><title>icon_ig</title><g id="Layer_2" data-name="Layer 2"><g id="Web"><g id="Contenido"><path class="cls-1" d="M42.61,85.22c-11.8,0-13.36,0-18-.26a31.08,31.08,0,0,1-10.24-2A21.15,21.15,0,0,1,2.22,70.91a31.19,31.19,0,0,1-2-10.25C.05,56,0,54.45,0,42.61s.05-13.39.26-18a31.08,31.08,0,0,1,2-10.24A20.22,20.22,0,0,1,7,7a20.22,20.22,0,0,1,7.33-4.77,31.08,31.08,0,0,1,10.24-2C29,.06,30.62,0,40.94,0h3.35C54.6,0,56.2.06,60.66.26a31.09,31.09,0,0,1,10.25,2A20.1,20.1,0,0,1,78.23,7,20.1,20.1,0,0,1,83,14.31a31.19,31.19,0,0,1,2,10.25c.2,4.49.26,6.11.26,16.8v2.5c0,10.69-.06,12.31-.26,16.8a31.19,31.19,0,0,1-2,10.25A21.17,21.17,0,0,1,70.91,83a31.19,31.19,0,0,1-10.25,2C56,85.17,54.41,85.22,42.61,85.22Zm0-79.94c-11.79,0-13.18,0-17.81.26a25.44,25.44,0,0,0-8.57,1.6,14.68,14.68,0,0,0-5.51,3.58,15,15,0,0,0-3.58,5.5,25.51,25.51,0,0,0-1.6,8.58c-.21,4.66-.26,6.06-.26,17.81s0,13.15.26,17.81A25.38,25.38,0,0,0,7.14,69a14.77,14.77,0,0,0,3.58,5.51,14.73,14.73,0,0,0,5.5,3.58,25.45,25.45,0,0,0,8.58,1.6c4.63.22,6,.26,17.81.26s13.18,0,17.81-.26A25.51,25.51,0,0,0,69,78.08,15.86,15.86,0,0,0,78.08,69a25.57,25.57,0,0,0,1.6-8.58c.22-4.63.26-6,.26-17.81s0-13.18-.26-17.81a25.38,25.38,0,0,0-1.6-8.57,14.68,14.68,0,0,0-3.58-5.51A14.85,14.85,0,0,0,69,7.14a25.51,25.51,0,0,0-8.58-1.6C55.79,5.33,54.4,5.28,42.61,5.28Z"/><path class="cls-1" d="M42.61,63.85A21.24,21.24,0,1,1,63.85,42.61,21.27,21.27,0,0,1,42.61,63.85Zm0-37.2a16,16,0,1,0,16,16A16,16,0,0,0,42.61,26.65Z"/><path class="cls-1" d="M66.06,23.12a4,4,0,1,1,4-4A4,4,0,0,1,66.06,23.12Z"/></g></g></g></svg>