<svg xmlns="http://www.w3.org/2000/svg" viewBox="0 0 117.09 73.58"><defs><style>.cls-1{fill:#fff;}</style></defs><title>icon_be</title><g id="Layer_2" data-name="Layer 2"><g id="Web"><g id="Contenido"><path class="cls-1" d="M47.06,32.76a18.81,18.81,0,0,0,7.28-6c1.82-2.34,2.6-5.46,2.6-9.1a20.65,20.65,0,0,0-1.56-8.32A12,12,0,0,0,50.7,3.9,20.32,20.32,0,0,0,43.42,1a35.62,35.62,0,0,0-9.36-1H0V71.76H34.84a38.67,38.67,0,0,0,9.36-1.3,26.93,26.93,0,0,0,8.32-3.64,17.3,17.3,0,0,0,5.72-6.5A20.72,20.72,0,0,0,60.32,51a20.48,20.48,0,0,0-3.38-11.44A17.4,17.4,0,0,0,47.06,32.76ZM15.86,12.22H30.94a21,21,0,0,1,4.16.26,13.06,13.06,0,0,1,3.38,1.3,7.37,7.37,0,0,1,2.34,2.6,9.9,9.9,0,0,1,.78,4.16c0,2.86-.78,5.2-2.6,6.5a11.83,11.83,0,0,1-7,2.08H15.86ZM43.42,54.86a9.27,9.27,0,0,1-2.6,2.86,9.12,9.12,0,0,1-3.64,1.56,22.9,22.9,0,0,1-4.42.52H15.86v-20H33a13.71,13.71,0,0,1,8.32,2.34c2.08,1.82,3.12,4.42,3.12,8.06A12.42,12.42,0,0,1,43.42,54.86Z"/><path class="cls-1" d="M116.47,38a31.5,31.5,0,0,0-4.68-9.88,21.11,21.11,0,0,0-8.06-7A24.26,24.26,0,0,0,92,18.46a29.18,29.18,0,0,0-10.92,2.08,26.25,26.25,0,0,0-8.31,5.72,28,28,0,0,0-5.46,8.84A30.11,30.11,0,0,0,65.52,46,30.59,30.59,0,0,0,67.34,57.2a20.63,20.63,0,0,0,5.2,8.58,20.67,20.67,0,0,0,8.31,5.72A30.57,30.57,0,0,0,92,73.58a27.77,27.77,0,0,0,15.08-4.16c4.16-2.86,7.28-7.28,9.36-13.52H103.73a10.4,10.4,0,0,1-3.9,4.68,14.22,14.22,0,0,1-7.54,2.08q-6.24,0-9.36-3.12c-2.08-2.08-3.64-6-3.64-10.14H117A54.55,54.55,0,0,0,116.47,38Zm-36.92,2.6a17.89,17.89,0,0,1,.52-3.38,6.93,6.93,0,0,1,1.82-3.64,13.66,13.66,0,0,1,3.64-2.86,12.39,12.39,0,0,1,5.72-1.3,11.26,11.26,0,0,1,8.06,2.86c1.82,1.82,3.12,4.42,3.64,8.32Z"/><rect class="cls-1" x="76.43" y="4.94" width="29.12" height="7.02"/></g></g></g></svg>