<?xml version="1.0" encoding="utf-8"?>
<!-- Generator: Adobe Illustrator 23.0.5, SVG Export Plug-In . SVG Version: 6.00 Build 0)  -->
<svg version="1.1" id="Layer_1" xmlns="http://www.w3.org/2000/svg" xmlns:xlink="http://www.w3.org/1999/xlink" x="0px" y="0px"
	 viewBox="0 0 100 18.5" style="enable-background:new 0 0 100 18.5;" xml:space="preserve">
<style type="text/css">
	.st0{fill:#FFFFFF;}
</style>
<g>
	<path class="st0" d="M8.3,15.1c0.4,0,0.7,0,1.1-0.1c0.3-0.1,0.7-0.2,0.9-0.4c0.3-0.2,0.5-0.4,0.6-0.7c0.2-0.3,0.2-0.7,0.2-1.2
		c0-0.9-0.2-1.6-0.8-2c-0.5-0.4-1.2-0.6-2.1-0.6H4v5L8.3,15.1L8.3,15.1z M8.1,7.4c0.7,0,1.3-0.2,1.8-0.5c0.5-0.3,0.7-0.9,0.7-1.7
		c0-0.4-0.1-0.8-0.2-1.1C10.1,3.9,10,3.7,9.7,3.5C9.5,3.4,9.2,3.3,8.8,3.2C8.5,3.2,8.1,3.1,7.8,3.1H4v4.2H8.1L8.1,7.4z M8.6,0
		c0.8,0,1.7,0.1,2.4,0.2s1.3,0.4,1.8,0.7s0.9,0.8,1.2,1.4s0.4,1.3,0.4,2.1c0,0.9-0.2,1.7-0.6,2.3c-0.4,0.6-1.1,1.1-1.9,1.5
		c1.1,0.3,2,0.9,2.5,1.7c0.5,0.8,0.8,1.8,0.8,2.9c0,0.9-0.2,1.7-0.5,2.4c-0.3,0.7-0.8,1.2-1.5,1.6c-0.6,0.4-1.3,0.7-2.1,0.9
		c-0.7,0.2-1.6,0.3-2.4,0.3H0V0H8.6L8.6,0z"/>
	<path class="st0" d="M25.1,8.1c-0.4-0.5-1.2-0.7-2.1-0.7c-0.6,0-1.1,0.1-1.5,0.3c-0.4,0.2-0.7,0.4-0.9,0.7
		c-0.2,0.3-0.4,0.6-0.5,0.9S20,9.9,20,10.2h5.9C25.8,9.3,25.5,8.6,25.1,8.1L25.1,8.1z M20.9,15c0.5,0.5,1.3,0.8,2.3,0.8
		c0.7,0,1.4-0.2,1.9-0.5c0.5-0.4,0.8-0.7,0.9-1.2h3.2c-0.5,1.6-1.3,2.7-2.3,3.4c-1.1,0.7-2.3,1-3.8,1c-1.1,0-2-0.2-2.8-0.5
		c-0.8-0.3-1.6-0.8-2.1-1.4c-0.6-0.6-1-1.4-1.3-2.2s-0.5-1.8-0.5-2.8c0-1,0.2-1.9,0.5-2.7s0.8-1.6,1.4-2.2c0.6-0.6,1.3-1.1,2.1-1.5
		c0.8-0.3,1.7-0.5,2.7-0.5c1.1,0,2.1,0.2,2.9,0.6c0.8,0.4,1.5,1,2.1,1.7s0.9,1.6,1.2,2.5c0.2,0.9,0.3,1.9,0.2,2.9H20
		C20,13.5,20.4,14.5,20.9,15L20.9,15z"/>
	<path class="st0" d="M34.6,0v6.8h0.1c0.4-0.7,1.1-1.3,1.8-1.7s1.4-0.5,2.1-0.5c0.9,0,1.8,0.1,2.4,0.4c0.6,0.3,1.1,0.6,1.5,1.1
		c0.3,0.5,0.6,1.1,0.7,1.7c0.1,0.7,0.2,1.4,0.2,2.2v8.1h-3.6v-7.4c0-1.1-0.2-1.9-0.5-2.4c-0.3-0.5-0.9-0.8-1.8-0.8
		c-1,0-1.7,0.3-2.1,0.9c-0.4,0.6-0.7,1.6-0.7,2.9v6.9H31V0H34.6"/>
	<path class="st0" d="M53,12.1c-0.2,0.1-0.5,0.1-0.7,0.2c-0.3,0.1-0.5,0.1-0.8,0.1c-0.3,0-0.6,0.1-0.8,0.1c-0.3,0.1-0.5,0.1-0.8,0.2
		c-0.2,0.1-0.5,0.2-0.7,0.3s-0.3,0.3-0.5,0.5c-0.1,0.2-0.2,0.5-0.2,0.8c0,0.3,0.1,0.6,0.2,0.8c0.1,0.2,0.3,0.4,0.5,0.5
		c0.2,0.1,0.4,0.2,0.7,0.3c0.3,0.1,0.5,0.1,0.8,0.1c0.7,0,1.3-0.1,1.6-0.3c0.4-0.2,0.7-0.5,0.8-0.8c0.2-0.3,0.3-0.7,0.3-1
		c0-0.3,0.1-0.6,0.1-0.8v-1.4C53.5,11.9,53.3,12,53,12.1L53,12.1z M46,6.9c0.4-0.6,0.8-1,1.4-1.4c0.6-0.3,1.2-0.6,2-0.7
		c0.7-0.2,1.5-0.2,2.2-0.2c0.7,0,1.3,0,2,0.1c0.7,0.1,1.3,0.3,1.9,0.5c0.6,0.3,1,0.6,1.4,1.1c0.3,0.5,0.5,1.1,0.5,1.9v6.8
		c0,0.6,0,1.2,0.1,1.7c0.1,0.5,0.2,0.9,0.4,1.2h-3.7c-0.1-0.2-0.2-0.4-0.2-0.6c0-0.2-0.1-0.4-0.1-0.6c-0.6,0.6-1.3,1-2,1.3
		c-0.8,0.2-1.6,0.3-2.4,0.3c-0.6,0-1.2-0.1-1.8-0.2c-0.5-0.2-1-0.4-1.4-0.7c-0.4-0.3-0.7-0.7-0.9-1.2c-0.2-0.5-0.3-1.1-0.3-1.8
		c0-0.7,0.1-1.4,0.4-1.9c0.3-0.5,0.6-0.9,1-1.2c0.4-0.3,0.9-0.5,1.4-0.6c0.5-0.1,1.1-0.2,1.6-0.3c0.5-0.1,1.1-0.2,1.6-0.2
		c0.5-0.1,1-0.1,1.4-0.2c0.4-0.1,0.7-0.2,1-0.4c0.2-0.2,0.3-0.5,0.3-0.8c0-0.4-0.1-0.7-0.2-0.9c-0.1-0.2-0.3-0.4-0.5-0.5
		c-0.2-0.1-0.4-0.2-0.7-0.2c-0.3,0-0.6-0.1-0.9-0.1c-0.7,0-1.3,0.2-1.7,0.5C49.3,7.8,49,8.3,49,9.1h-3.6C45.4,8.2,45.6,7.5,46,6.9
		L46,6.9z"/>
	<path class="st0" d="M62.7,5v1.8h0.1c0.4-0.7,1.1-1.3,1.8-1.7s1.5-0.5,2.2-0.5c1,0,1.8,0.1,2.4,0.4c0.6,0.3,1.1,0.6,1.5,1.1
		c0.4,0.5,0.6,1.1,0.7,1.7c0.1,0.7,0.2,1.4,0.2,2.2v8.1h-3.6v-7.4c0-1.1-0.2-1.9-0.5-2.4c-0.3-0.5-0.9-0.9-1.8-0.9
		c-1,0-1.7,0.4-2.1,0.9C63,9,62.8,10,62.8,11.3v6.9h-3.6V5H62.7"/>
	<path class="st0" d="M79.7,7.4c-0.6,0-1.1,0.1-1.5,0.4c-0.4,0.3-0.7,0.6-0.9,1c-0.2,0.4-0.4,0.9-0.5,1.4c-0.1,0.5-0.2,1-0.2,1.5
		c0,0.5,0.1,0.9,0.2,1.5c0.1,0.5,0.3,0.9,0.5,1.4c0.2,0.4,0.5,0.7,0.9,1c0.4,0.3,0.8,0.4,1.4,0.4c0.9,0,1.6-0.2,2-0.7
		c0.5-0.5,0.7-1.1,0.9-2h3.5c-0.2,1.7-0.9,3.1-2,4c-1.1,0.9-2.6,1.4-4.3,1.4c-1,0-1.9-0.2-2.7-0.5c-0.8-0.3-1.5-0.8-2.1-1.4
		c-0.6-0.6-1.1-1.3-1.4-2.1c-0.3-0.8-0.5-1.7-0.5-2.7c0-1,0.2-2,0.4-2.8c0.3-0.9,0.7-1.6,1.3-2.3s1.3-1.1,2.1-1.5
		c0.8-0.3,1.8-0.5,2.8-0.5c0.8,0,1.5,0.1,2.2,0.3c0.7,0.2,1.4,0.5,1.9,0.9c0.6,0.4,1.1,0.9,1.4,1.6c0.3,0.6,0.5,1.4,0.6,2.2h-3.5
		C82.1,8.1,81.2,7.4,79.7,7.4"/>
	<path class="st0" d="M19.3,1.2h7.4V3h-7.4V1.2z"/>
	<path class="st0" d="M95.6,8.1c-0.4-0.5-1.2-0.7-2.1-0.7c-0.6,0-1.1,0.1-1.5,0.3c-0.4,0.2-0.7,0.4-0.9,0.7
		c-0.2,0.3-0.4,0.6-0.5,0.9c-0.1,0.3-0.1,0.6-0.2,0.8h5.9C96.3,9.3,96,8.6,95.6,8.1L95.6,8.1z M91.4,15c0.5,0.5,1.4,0.8,2.4,0.8
		c0.7,0,1.4-0.2,1.9-0.5c0.5-0.4,0.8-0.7,0.9-1.2h3.2c-0.5,1.6-1.3,2.7-2.3,3.4c-1.1,0.7-2.3,1-3.8,1c-1.1,0-2-0.2-2.8-0.5
		c-0.8-0.3-1.6-0.8-2.1-1.4c-0.6-0.6-1-1.4-1.4-2.2c-0.3-0.8-0.5-1.8-0.5-2.8c0-1,0.2-1.9,0.5-2.7c0.3-0.8,0.8-1.6,1.4-2.2
		C89.3,6,90,5.5,90.8,5.2c0.8-0.3,1.7-0.5,2.7-0.5c1.1,0,2.1,0.2,2.9,0.6c0.8,0.4,1.5,1,2.1,1.7c0.5,0.7,0.9,1.6,1.2,2.5
		c0.2,0.9,0.3,1.9,0.2,2.9h-9.5C90.5,13.5,90.8,14.5,91.4,15L91.4,15z"/>
</g>
</svg>
