<svg xmlns="http://www.w3.org/2000/svg" viewBox="0 0 85.22 85.22"><defs><style>.cls-1{fill:#fff;}</style></defs><title>icon_fb</title><g id="Layer_2" data-name="Layer 2"><g id="Web"><g id="Contenido"><path class="cls-1" d="M62.2,54.67l1.9-12.38H52.16v-8c0-3.4,1.73-6.72,7-6.72h5.4V17A61.34,61.34,0,0,0,55,16.11c-9.82,0-16.19,6-16.19,16.72v9.46h-11V54.67h11v30a42.36,42.36,0,0,0,13.36,0v-30Z"/><path class="cls-1" d="M66.33,5.27A13.64,13.64,0,0,1,80,18.89V66.33A13.64,13.64,0,0,1,66.33,80H18.89A13.64,13.64,0,0,1,5.27,66.33V18.89A13.64,13.64,0,0,1,18.89,5.27H66.33m0-5.27H18.89A18.89,18.89,0,0,0,0,18.89V66.33A18.89,18.89,0,0,0,18.89,85.22H66.33A18.88,18.88,0,0,0,85.22,66.33V18.89A18.89,18.89,0,0,0,66.33,0Z"/></g></g></g></svg>